HIERARCHY
ROOT Hips
{
	OFFSET 0.000000 88.474243 0.000000
	CHANNELS 6 Xposition Yposition Zposition Zrotation Yrotation Xrotation 
	JOINT Hips_Spine
	{
		OFFSET 0.000000 0.000000 0.000000
		CHANNELS 3 Zrotation Yrotation Xrotation
		JOINT Spine
		{
			OFFSET 0.005100 8.711998 -0.691000
			CHANNELS 3 Zrotation Yrotation Xrotation
			JOINT Spine1
			{
				OFFSET -0.009200 8.660301 -1.275000
				CHANNELS 3 Zrotation Yrotation Xrotation
				JOINT Spine2
				{
					OFFSET 0.006300 9.852501 -1.857000
					CHANNELS 3 Zrotation Yrotation Xrotation
					JOINT Spine2_Neck
					{
						OFFSET 0.000000 0.000000 0.000000
						CHANNELS 3 Zrotation Yrotation Xrotation
						JOINT Neck
						{
							OFFSET 0.016300 11.420799 -0.263300
							CHANNELS 3 Zrotation Yrotation Xrotation
							End Site #name: Head
							{
								OFFSET -0.019200 9.262405 2.362500
							}
						}
					}
					JOINT Spine2_LeftShoulder
					{
						OFFSET 0.000000 0.000000 0.000000
						CHANNELS 3 Zrotation Yrotation Xrotation
						JOINT LeftShoulder
						{
							OFFSET 5.616900 6.732201 -0.345700
							CHANNELS 3 Zrotation Yrotation Xrotation
							JOINT LeftArm
							{
								OFFSET 10.664888 -0.183372 -2.440700
								CHANNELS 3 Zrotation Yrotation Xrotation
								JOINT LeftForeArm
								{
									OFFSET 27.459126 0.000000 0.000000
									CHANNELS 3 Zrotation Yrotation Xrotation
									End Site #name: LeftHand
									{
										OFFSET 21.306858 0.000000 0.000000
									}
								}
							}
						}
					}
					JOINT Spine2_RightShoulder
					{
						OFFSET 0.000000 0.000000 0.000000
						CHANNELS 3 Zrotation Yrotation Xrotation
						JOINT RightShoulder
						{
							OFFSET -5.580300 6.737503 -0.344400
							CHANNELS 3 Zrotation Yrotation Xrotation
							JOINT RightArm
							{
								OFFSET -10.679335 -0.188484 -2.383900
								CHANNELS 3 Zrotation Yrotation Xrotation
								JOINT RightForeArm
								{
									OFFSET -27.503529 0.000000 0.000000
									CHANNELS 3 Zrotation Yrotation Xrotation
									End Site #name: RightHand
									{
										OFFSET -21.306808 0.000000 0.000000
									}
								}
							}
						}
					}
				}
			}
		}
	}
	JOINT Hips_LeftUpLeg
	{
		OFFSET 0.000000 0.000000 0.000000
		CHANNELS 3 Zrotation Yrotation Xrotation
		JOINT LeftUpLeg
		{
			OFFSET 6.857700 -6.739601 0.312100
			CHANNELS 3 Zrotation Yrotation Xrotation
			JOINT LeftLeg
			{
				OFFSET -0.367590 -34.731552 -4.572400
				CHANNELS 3 Zrotation Yrotation Xrotation
				End Site #name: LeftFoot
				{
					OFFSET 0.367590 -34.656704 -6.067400
				}
			}
		}
	}
	JOINT Hips_RightUpLeg
	{
		OFFSET 0.000000 0.000000 0.000000
		CHANNELS 3 Zrotation Yrotation Xrotation
		JOINT RightUpLeg
		{
			OFFSET -6.876100 -6.733299 0.301000
			CHANNELS 3 Zrotation Yrotation Xrotation
			JOINT RightLeg
			{
				OFFSET 0.347353 -34.795158 -4.515900
				CHANNELS 3 Zrotation Yrotation Xrotation
				End Site #name: RightFoot
				{
					OFFSET -0.347353 -34.589367 -6.070300
				}
			}
		}
	}
}
MOTION
Frames: 14
Frame Time: 0.041667
0.158185 0.026962 0.038637 -0.166446 15.742938 -7.350729 0.000000 -0.000000 0.000000 0.266181 -1.424542 2.639836 0.519389 -0.969744 1.958768 0.000000 0.000000 0.000000 0.740197 -0.703618 0.252853 0.732741 -0.250483 -1.272700 1.144364 -1.227552 0.660420 -16.529071 -3.672674 1.177658 -52.956385 -1.369205 29.743809 0.197578 -27.100521 2.731812 0.462403 -0.601037 0.975759 19.211138 11.581279 4.285498 55.442183 -1.371435 0.890463 -0.010521 49.180335 0.924873 0.000000 0.000000 0.000000 -4.071257 10.436159 -6.631752 1.768383 2.934030 23.054803 0.000000 0.000000 0.000000 2.109097 -9.097650 -4.791658 0.093129 7.018995 1.339010 
0.480542 -0.012283 0.011643 0.758680 18.408807 -8.445283 0.000000 0.000000 0.000000 -0.133081 -0.992690 0.782926 1.020369 -0.647117 1.391969 0.000000 0.000000 0.000000 0.754518 -0.633246 0.160164 1.340973 -0.092938 -1.903019 0.878875 -0.729755 0.174955 -19.571086 -2.096526 0.021250 -53.032223 -2.959409 33.178778 -0.838559 -28.021781 1.338559 0.542397 -0.540785 0.591348 20.175031 9.561254 3.082137 58.095899 3.204470 6.497659 -0.186515 40.711652 0.045681 0.000000 0.000000 -0.000000 -5.547517 10.427867 -5.226709 0.276853 3.319864 22.662866 0.000000 -0.000000 0.000000 -0.892205 -10.840391 -3.252623 0.140411 8.594248 2.412943 
0.727256 -0.018859 -0.060219 1.568615 18.698711 -8.346615 0.000000 0.000000 0.000000 -0.064075 -0.554793 0.389258 1.177068 -0.485779 1.129194 0.000000 0.000000 0.000000 0.940242 -0.749489 0.006069 2.116339 1.054402 -3.360152 0.713140 -0.730822 0.073270 -22.614467 -0.503525 -0.395444 -53.112613 -0.063727 27.822789 -0.621584 -26.755965 1.195601 0.593611 -0.459479 0.441358 20.471346 9.588915 3.068977 57.833585 5.439485 8.456612 -0.053825 31.332024 -0.172617 0.000000 0.000000 -0.000000 -6.781967 10.464538 -5.235994 0.247378 3.553046 22.576428 0.000000 -0.000000 0.000000 -2.549259 -11.184099 -3.607013 0.732444 8.085837 4.298415 
1.027246 -0.034793 -0.151533 1.689274 17.825137 -8.245163 0.000000 0.000000 0.000000 -0.466468 -0.357453 0.585887 1.124029 -0.565636 1.208980 0.000000 0.000000 0.000000 1.013159 -0.850286 0.099153 2.332043 1.219730 -3.390919 0.688697 -0.823207 0.115881 -23.882612 -0.322355 -0.845787 -53.935094 1.709569 25.963162 -0.611006 -24.112167 1.112600 0.692014 -0.540655 0.500228 20.493331 9.927367 3.162494 57.983285 9.045521 8.994156 0.067776 30.153975 -0.166249 0.000000 0.000000 -0.000000 -7.376836 10.613970 -5.150078 0.082688 3.291181 21.865859 0.000000 0.000000 0.000000 -3.369053 -11.308412 -4.659890 1.425667 8.303958 6.561860 
1.384456 -0.049571 -0.247793 1.590890 17.249536 -8.140283 0.000000 0.000000 0.000000 -1.051913 -0.165461 0.602896 0.922471 -0.598669 1.315290 0.000000 0.000000 0.000000 0.853682 -0.955108 0.134458 2.278721 1.169459 -2.910668 0.564944 -0.962391 0.036806 -25.432655 -0.133649 -1.092354 -53.136708 1.785669 27.834485 -0.663204 -21.353473 1.206602 0.627709 -0.638142 0.630972 20.716514 9.851438 3.092908 58.458742 11.377302 8.837828 0.189070 29.953918 -0.186601 0.000000 0.000000 -0.000000 -7.771175 10.484344 -5.287470 -0.204210 2.688623 21.660473 0.000000 0.000000 0.000000 -3.881038 -11.234116 -5.422833 2.120971 8.853743 8.194568 
1.774332 -0.067252 -0.350866 1.423633 16.976155 -8.090808 0.000000 0.000000 0.000000 -1.687627 -0.060994 0.750827 0.614709 -0.620094 1.448356 0.000000 0.000000 0.000000 0.569829 -1.047783 0.216019 2.111419 1.012797 -2.437391 0.393314 -0.993679 0.140333 -26.618678 0.477382 -1.321744 -51.678296 1.473717 29.036023 -0.719456 -18.460768 1.324168 0.437620 -0.687618 0.752129 20.856902 9.750730 3.031137 59.139754 12.580809 8.659997 0.292440 30.699331 -0.191553 0.000000 0.000000 -0.000000 -8.018808 10.350162 -5.503887 -0.505447 2.052238 21.927391 0.000000 0.000000 0.000000 -4.197259 -11.168166 -5.813649 2.835448 9.894566 9.055532 
2.172198 -0.083050 -0.457890 1.247219 16.828288 -8.034264 0.000000 0.000000 0.000000 -2.118487 -0.059199 0.956069 0.384771 -0.643445 1.575219 0.000000 0.000000 0.000000 0.343201 -1.091932 0.295184 1.943463 0.848771 -2.150961 0.246687 -0.957778 0.346420 -27.464956 1.014888 -1.432771 -50.332876 1.448110 29.666870 -0.743033 -15.072767 1.370319 0.247434 -0.713773 0.847704 20.738885 9.802493 2.994831 59.787677 13.258651 8.077076 0.365942 31.473200 -0.169950 0.000000 0.000000 -0.000000 -8.228230 10.256293 -5.785076 -0.800642 1.455332 22.315581 0.000000 0.000000 0.000000 -4.469785 -11.237376 -6.041555 3.514460 10.962004 9.570478 
2.553939 -0.093812 -0.563881 1.080824 16.723878 -7.949921 0.000000 0.000000 0.000000 -2.409358 -0.047416 1.096622 0.273775 -0.655316 1.654674 0.000000 0.000000 0.000000 0.225941 -1.107058 0.372797 1.789573 0.649752 -1.876314 0.173765 -0.928996 0.493943 -28.300399 1.314442 -1.499205 -49.160392 1.531443 29.442394 -0.743918 -12.236497 1.396182 0.153714 -0.731480 0.909736 20.509077 10.008275 2.997644 60.277890 13.492306 7.549636 0.418271 32.069948 -0.140693 0.000000 0.000000 -0.000000 -8.471374 10.130146 -6.081904 -0.998334 0.979672 22.655775 0.000000 0.000000 0.000000 -4.797993 -11.326335 -6.310578 4.093199 11.650666 10.058230 
2.893340 -0.099004 -0.662616 0.945283 16.714044 -7.824095 0.000000 0.000000 0.000000 -2.610972 -0.024225 1.232543 0.220883 -0.639435 1.684877 0.000000 0.000000 0.000000 0.163223 -1.092489 0.442828 1.629709 0.444031 -1.650281 0.148624 -0.902739 0.556739 -28.982520 1.639362 -1.574371 -48.400822 1.533322 28.755527 -0.728772 -10.157694 1.367514 0.116122 -0.718823 0.939962 20.270531 10.199291 2.991044 60.598249 13.544631 7.124577 0.452728 32.332891 -0.113586 0.000000 0.000000 -0.000000 -8.758420 9.967633 -6.395325 -1.052195 0.741940 22.986932 0.000000 0.000000 0.000000 -5.177275 -11.289345 -6.665455 4.294452 11.605015 10.577150 
3.180731 -0.101699 -0.754657 0.883099 16.735201 -7.694061 0.000000 0.000000 0.000000 -2.787955 -0.007480 1.395964 0.173704 -0.590512 1.670096 0.000000 0.000000 0.000000 0.117166 -1.050835 0.477879 1.487805 0.232976 -1.501558 0.130818 -0.861012 0.582655 -29.431644 1.831924 -1.650730 -47.991746 1.492121 27.960174 -0.711928 -8.912163 1.342788 0.081121 -0.672178 0.945754 20.062266 10.327022 2.959915 60.765134 13.609808 6.837482 0.476867 32.495615 -0.090469 0.000000 0.000000 -0.000000 -9.071372 9.798225 -6.674788 -0.954529 0.822895 23.290022 0.000000 0.000000 0.000000 -5.535125 -11.268240 -7.053033 4.220119 11.341191 11.163531 
3.408346 -0.103756 -0.840754 0.889690 16.711681 -7.598155 0.000000 0.000000 0.000000 -2.968362 0.026585 1.597071 0.120969 -0.525706 1.629328 0.000000 0.000000 0.000000 0.067937 -0.989835 0.498397 1.368961 0.024382 -1.410392 0.101333 -0.806347 0.595870 -29.666354 1.939723 -1.734681 -47.890034 1.342575 27.366355 -0.697531 -8.521412 1.311359 0.025369 -0.593678 0.949636 19.942509 10.336144 2.912604 60.847241 13.715736 6.676977 0.495170 32.731980 -0.081519 0.000000 0.000000 -0.000000 -9.377879 9.647157 -6.866541 -0.707822 1.223687 23.524876 0.000000 0.000000 0.000000 -5.857981 -11.280754 -7.450727 4.111469 11.199242 11.940607 
3.567215 -0.107226 -0.921237 0.939419 16.736530 -7.559914 0.000000 0.000000 0.000000 -3.155460 0.054526 1.837711 0.062775 -0.460512 1.573932 0.000000 0.000000 0.000000 0.019435 -0.928100 0.502645 1.280594 -0.160122 -1.349694 0.067335 -0.750065 0.604875 -29.707978 1.954199 -1.779246 -48.084898 1.136653 27.198671 -0.677473 -8.541817 1.288118 -0.033526 -0.513367 0.950234 19.882547 10.239034 2.851583 60.880281 13.785892 6.645215 0.503100 32.908814 -0.078332 0.000000 0.000000 -0.000000 -9.647619 9.526415 -6.952719 -0.361446 1.863406 23.693490 0.000000 0.000000 0.000000 -6.167784 -11.350211 -7.816656 4.011130 11.169774 12.875122 
3.648019 -0.111681 -0.996961 1.027496 16.829877 -7.571471 0.000000 0.000000 0.000000 -3.305724 0.068274 2.095933 0.026844 -0.410890 1.510283 0.000000 0.000000 0.000000 -0.011240 -0.880125 0.484929 1.235768 -0.293319 -1.320024 0.041916 -0.705426 0.604805 -29.605535 1.870004 -1.790874 -48.446445 0.873317 27.365033 -0.662040 -8.737139 1.276257 -0.081862 -0.445059 0.946484 19.853121 10.094166 2.774412 60.878293 13.861766 6.882544 0.506536 33.071920 -0.081023 0.000000 0.000000 -0.000000 -9.869926 9.442285 -6.955658 0.022645 2.613714 23.793255 0.000000 0.000000 0.000000 -6.470533 -11.484713 -8.157453 3.936358 11.182002 13.925573 
3.656806 -0.115791 -1.069432 1.131558 16.941538 -7.597216 0.000000 0.000000 -0.000000 -3.415999 0.063449 2.302082 0.032446 -0.387557 1.433993 0.000000 0.000000 0.000000 -0.005511 -0.859563 0.453821 1.234970 -0.385577 -1.312663 0.041321 -0.688299 0.590254 -29.436033 1.711009 -1.754897 -48.851285 0.660024 27.758765 -0.647792 -9.017006 1.268557 -0.093690 -0.410793 0.930345 19.857323 9.967245 2.717291 60.860752 13.941412 7.198273 0.506978 33.205458 -0.086112 0.000000 0.000000 -0.000000 -10.041500 9.376219 -6.903397 0.405541 3.377515 23.829034 0.000000 0.000000 0.000000 -6.720609 -11.605756 -8.463424 3.853017 11.233549 14.841472 
